<svg width="20" height="14" viewBox="0 0 20 14" fill="none" xmlns="http://www.w3.org/2000/svg">
<path d="M9.48973 9.48131H6.9362C6.68265 10.5317 6.01258 11.3104 4.76298 11.3104C4.07479 11.3104 3.51337 11.0569 3.15117 10.6404C2.68031 10.0971 2.51731 9.4632 2.51731 7.00022C2.51731 4.53724 2.68031 3.90338 3.15117 3.36007C3.51337 2.94354 4.07479 2.69 4.76298 2.69C6.01258 2.69 6.66454 3.46874 6.91809 4.51913H9.48973C9.01887 1.82071 7.17163 0.444336 4.76298 0.444336C3.27794 0.444336 2.19133 0.933311 1.30393 1.8026C0.0181102 3.08842 0 4.53724 0 7.00022C0 9.4632 0.0181102 10.912 1.30393 12.1978C2.19133 13.0671 3.27794 13.5561 4.76298 13.5561C7.15352 13.5561 9.01887 12.1797 9.48973 9.48131Z" fill="#FFF1E5"/>
<path d="M20 0.552998H17.374L14.7843 8.95612L12.1945 0.552998H9.58665L13.8425 13.4474H15.726L20 0.552998Z" fill="#FFF1E5"/>
</svg>
