<svg width="20" height="18" viewBox="0 0 20 18" fill="none" xmlns="http://www.w3.org/2000/svg">
<path d="M10.0017 7.73505e-07C4.89334 -0.00206487 0.755859 4.13335 0.755859 9.23755C0.755859 13.2738 3.34411 16.7048 6.94865 17.9649C7.43408 18.0868 7.35972 17.7418 7.35972 17.5063V15.9054C4.55664 16.2339 4.44303 14.3789 4.25506 14.0691C3.87498 13.4205 2.97642 13.2552 3.24496 12.9454C3.88324 12.6169 4.53392 13.028 5.28788 14.1414C5.83321 14.949 6.89701 14.8127 7.43614 14.6784C7.55389 14.193 7.80589 13.7592 8.15292 13.4225C5.24863 12.902 4.03816 11.1297 4.03816 9.02272C4.03816 8.00023 4.37486 7.06036 5.03587 6.30227C4.61448 5.05256 5.07512 3.98256 5.13709 3.8235C6.33722 3.71609 7.58487 4.68281 7.68196 4.75924C8.36362 4.5754 9.14236 4.47831 10.0141 4.47831C10.8899 4.47831 11.6707 4.57953 12.3586 4.76544C12.592 4.58779 13.7487 3.7574 14.8642 3.85862C14.9241 4.01767 15.3744 5.06289 14.9778 6.29608C15.6471 7.05623 15.9879 8.00436 15.9879 9.02892C15.9879 11.14 14.7692 12.9144 11.8566 13.4267C12.1061 13.672 12.3042 13.9646 12.4393 14.2873C12.5744 14.6101 12.6439 14.9565 12.6436 15.3064V17.6302C12.6602 17.8162 12.6436 18 12.9535 18C16.6117 16.7668 19.2454 13.311 19.2454 9.23961C19.2454 4.13335 15.1059 7.73505e-07 10.0017 7.73505e-07Z" fill="#A89F97"/>
</svg>
