<svg width="21" height="20" viewBox="0 0 21 20" fill="none" xmlns="http://www.w3.org/2000/svg">
<path d="M10.1309 0.470947C8.81764 0.470947 7.51728 0.729605 6.30402 1.23215C5.09077 1.7347 3.98838 2.47129 3.05979 3.39988C1.18443 5.27524 0.130859 7.81878 0.130859 10.4709C0.130859 14.8909 3.00086 18.6409 6.97086 19.9709C7.47086 20.0509 7.63086 19.7409 7.63086 19.4709V17.7809C4.86086 18.3809 4.27086 16.4409 4.27086 16.4409C3.81086 15.2809 3.16086 14.9709 3.16086 14.9709C2.25086 14.3509 3.23086 14.3709 3.23086 14.3709C4.23086 14.4409 4.76086 15.4009 4.76086 15.4009C5.63086 16.9209 7.10086 16.4709 7.67086 16.2309C7.76086 15.5809 8.02086 15.1409 8.30086 14.8909C6.08086 14.6409 3.75086 13.7809 3.75086 9.97095C3.75086 8.86095 4.13086 7.97095 4.78086 7.26095C4.68086 7.01095 4.33086 5.97095 4.88086 4.62095C4.88086 4.62095 5.72086 4.35095 7.63086 5.64095C8.42086 5.42095 9.28086 5.31095 10.1309 5.31095C10.9809 5.31095 11.8409 5.42095 12.6309 5.64095C14.5409 4.35095 15.3809 4.62095 15.3809 4.62095C15.9309 5.97095 15.5809 7.01095 15.4809 7.26095C16.1309 7.97095 16.5109 8.86095 16.5109 9.97095C16.5109 13.7909 14.1709 14.6309 11.9409 14.8809C12.3009 15.1909 12.6309 15.8009 12.6309 16.7309V19.4709C12.6309 19.7409 12.7909 20.0609 13.3009 19.9709C17.2709 18.6309 20.1309 14.8909 20.1309 10.4709C20.1309 9.15773 19.8722 7.85737 19.3697 6.64411C18.8671 5.43086 18.1305 4.32847 17.2019 3.39988C16.2733 2.47129 15.1709 1.7347 13.9577 1.23215C12.7444 0.729605 11.4441 0.470947 10.1309 0.470947Z" fill="#FFF1E5"/>
</svg>
