<svg width="236" height="227" viewBox="0 0 236 227" fill="none" xmlns="http://www.w3.org/2000/svg">
<path d="M161.358 140.951L190.265 127.279L134.015 10.0919C130.108 2.2794 120.733 -1.23623 112.53 2.67002C104.718 6.57627 101.202 15.9513 105.108 24.1544L161.358 140.951Z" fill="#5C544C"/>
<path d="M101.609 169.467L131.687 155.014L74.265 35.4828C70.3587 27.2797 60.2025 23.3734 51.9994 27.2797C43.7962 31.1859 40.2806 41.3422 44.1869 49.5453L101.609 169.467Z" fill="#5C544C"/>
<path d="M126.999 145.639L157.077 131.186L105.573 23.9722L99.6556 11.655C95.7494 3.45183 85.5931 -0.454426 77.39 3.84245C69.1869 7.7487 65.6712 17.905 69.5775 26.1081L126.999 145.639Z" fill="#5C544C"/>
<path d="M230.5 47.5932C219.953 39.3901 202.765 48.3745 194.171 76.4995C188.312 96.0307 187.531 101.89 175.031 107.749L168 93.2964C168 93.2964 57.0621 146.812 61.359 155.406C61.359 155.406 74.6402 196.812 97.2965 215.953C130.89 244.859 209.406 213.999 212.921 139.39C214.875 96.0307 241.828 56.5776 230.5 47.5932Z" fill="#5C544C"/>
<path d="M32.0591 59.3108C24.2466 62.8265 21.5123 72.2015 25.0279 80.014L74.2466 182.748L101.59 169.858L52.3716 66.7327C48.856 58.9202 39.8716 55.4046 32.0591 59.3108Z" fill="#5C544C"/>
<path d="M55.8876 178.451C53.9345 178.06 52.372 177.67 50.4189 176.888C48.4657 176.107 46.9032 175.716 45.3407 174.935C41.8251 173.373 38.7001 171.42 35.5751 169.076C29.3251 164.779 24.247 158.92 20.3408 151.888C16.4345 145.248 14.0908 137.435 13.7001 130.013C13.3095 126.107 13.7001 122.591 14.0908 118.685C14.4814 116.732 14.872 115.17 15.2626 113.216C15.6533 111.263 16.4345 109.701 16.8251 107.748L17.2158 113.216C17.2158 115.17 17.6064 116.732 17.997 118.685C18.3876 122.201 19.1689 125.716 19.9501 128.841C21.5126 135.482 23.8564 141.732 27.372 147.591C30.8876 153.451 34.7939 158.92 39.872 163.998C42.2158 166.341 44.9501 168.685 47.6845 171.029C48.8564 172.201 50.4189 173.373 51.9814 174.545L55.8876 178.451Z" fill="#A89F97"/>
<path d="M54.7188 192.513C53.5469 193.295 51.9844 193.685 50.4219 194.076C48.8594 194.466 47.6875 194.857 46.125 194.857C43.3906 195.248 40.2656 195.638 37.1406 195.248C31.2812 194.857 25.0312 193.295 19.9531 190.56C14.4844 187.826 9.79688 183.529 6.67188 178.451C5.10938 176.107 3.54688 173.373 2.375 170.638C1.98438 169.466 1.59375 167.904 1.20312 166.341C1.20312 165.17 0.8125 163.998 0.8125 162.435C1.98438 163.607 2.76563 164.779 3.54688 165.56C4.71875 166.732 5.5 167.904 6.28125 168.685C8.23438 170.638 9.79688 172.591 11.75 174.154C15.6563 177.67 19.5625 180.795 24.25 183.138C28.5469 185.482 33.625 187.435 38.3125 188.998C40.6562 189.779 43.3906 190.17 46.125 190.951C47.2969 191.341 48.8594 191.341 50.0312 191.732C51.9844 192.123 53.1562 192.123 54.7188 192.513Z" fill="#A89F97"/>
<path d="M142.994 2.67194C144.947 3.06256 146.51 3.84381 148.463 4.62506C150.416 5.40631 151.978 6.18756 153.541 6.96881C157.056 8.92194 160.181 10.8751 163.306 13.2188C169.556 17.9063 174.635 24.1563 178.15 31.1876C181.666 38.2188 183.619 46.0313 183.619 53.4532C183.619 57.3594 183.228 60.8751 182.447 64.7813C182.056 66.7344 181.666 68.2969 180.885 70.2501C180.103 72.2032 179.713 73.7657 178.931 75.3282L178.541 69.8594C178.541 67.9063 178.541 66.3438 178.15 64.3907L176.978 53.8438C175.806 47.2032 173.463 40.5626 170.338 34.3126C167.213 28.0626 163.306 22.5938 158.619 17.5157C156.275 14.7813 153.541 12.4376 151.197 9.70319C150.025 8.53131 148.463 7.35944 146.9 6.18756L142.994 2.67194Z" fill="#A89F97"/>
<path d="M176.99 1.10791C178.553 1.49854 179.725 1.88916 180.897 2.67041C182.069 3.06104 183.631 3.84229 184.803 4.62354C187.147 6.18604 189.49 7.74854 191.834 9.70166C196.131 13.6079 199.647 18.2954 201.6 23.7642C203.944 29.2329 204.725 35.0923 203.944 40.9517C203.553 43.686 202.772 46.4204 201.99 49.1548C201.6 50.3267 200.819 51.8892 200.428 53.061C199.647 54.2329 199.256 55.4048 198.084 56.5767V48.7642C198.084 46.0298 197.694 43.686 197.694 41.3423C196.912 36.2642 196.131 31.5767 194.178 27.2798C192.225 22.5923 189.881 18.686 187.147 14.3892C185.584 12.436 184.022 10.0923 182.459 8.13916C181.678 6.96729 180.897 6.18603 179.725 5.01416C178.944 3.06104 177.772 1.88916 176.99 1.10791Z" fill="#A89F97"/>
<g opacity="0.5">
<path d="M49.4628 28.7995C56.8847 26.8464 65.6558 30.795 69.1714 38.2169L104.718 112.826L113.312 117.904L74.5276 35.8235C70.7488 27.5102 59.293 21.6976 49.4628 28.7995Z" fill="black"/>
<path d="M75.082 5.13864C82.5038 3.18551 91.0442 6.57944 94.5599 14.0013L134.794 98.3763L143.887 103.237L99.9844 12.0661C95.181 1.49867 83.3149 -0.525641 75.082 5.13864Z" fill="black"/>
<path d="M29.5723 60.7421C36.6035 58.789 44.1631 62.4387 47.2881 69.4699L76.585 130.798L85.8199 136.367L52.6308 67.1284C49.1478 59.0015 39.319 54.0176 29.5723 60.7421Z" fill="black"/>
<path d="M230.493 47.593C228.54 46.0305 226.186 45.0298 223.848 44.7891C223.848 44.7891 224.641 45.0463 225.415 45.6399C237.134 54.6243 225.025 75.3274 218.384 94.0774C212.915 108.921 208.228 124.156 209.009 138.999C212.134 203.843 147.191 234.368 108.128 222.65C145.218 238.795 217.212 208.531 214.087 140.952C213.306 126.109 217.603 111.656 223.462 96.0305C229.712 77.2805 241.822 56.5774 230.493 47.593Z" fill="black"/>
<path d="M112.928 2.28012C112.146 2.67074 111.365 3.06137 110.584 3.84262C118.006 1.88949 125.818 5.40512 129.334 12.4364L174.964 107.5L178.504 106.191L180 105L134.412 10.0926C130.506 1.88949 121.131 -1.62613 112.928 2.28012Z" fill="black"/>
<path d="M178.537 106.187C154.318 108.922 118.771 143.687 143.771 181.578C125.412 143.297 155.49 117.516 174.63 108.531C176.583 106.969 178.537 106.187 178.537 106.187Z" fill="black"/>
</g>
</svg>
