<svg width="18" height="14" viewBox="0 0 18 14" fill="none" xmlns="http://www.w3.org/2000/svg">
<path fill-rule="evenodd" clip-rule="evenodd" d="M16.7143 0H1.28571C0.944722 0 0.617695 0.1475 0.376577 0.41005C0.135459 0.672601 0 1.0287 0 1.4V12.6C0 12.9713 0.135459 13.3274 0.376577 13.5899C0.617695 13.8525 0.944722 14 1.28571 14H16.7143C17.0553 14 17.3823 13.8525 17.6234 13.5899C17.8645 13.3274 18 12.9713 18 12.6V1.4C18 1.0287 17.8645 0.672601 17.6234 0.41005C17.3823 0.1475 17.0553 0 16.7143 0ZM1.91603 1.87596C1.57138 1.6462 1.10573 1.73933 0.875962 2.08397C0.646198 2.42862 0.739328 2.89427 1.08397 3.12404L8.58397 8.12404L9 8.40139L9.41603 8.12404L16.916 3.12404C17.2607 2.89427 17.3538 2.42862 17.124 2.08397C16.8943 1.73933 16.4286 1.6462 16.084 1.87596L9 6.59861L1.91603 1.87596Z" fill="#FFF1E5"/>
</svg>
