<svg width="18" height="14" viewBox="0 0 18 14" fill="none" xmlns="http://www.w3.org/2000/svg">
<path d="M16.7143 0H1.28571C0.944722 0 0.617695 0.1475 0.376577 0.41005C0.135459 0.672601 0 1.0287 0 1.4V12.6C0 12.9713 0.135459 13.3274 0.376577 13.5899C0.617695 13.8525 0.944722 14 1.28571 14H16.7143C17.0553 14 17.3823 13.8525 17.6234 13.5899C17.8645 13.3274 18 12.9713 18 12.6V1.4C18 1.0287 17.8645 0.672601 17.6234 0.41005C17.3823 0.1475 17.0553 0 16.7143 0ZM15.3 1.4L9 6.146L2.7 1.4H15.3ZM1.28571 12.6V2.037L8.63357 7.574C8.74118 7.65529 8.86903 7.69885 9 7.69885C9.13097 7.69885 9.25882 7.65529 9.36643 7.574L16.7143 2.037V12.6H1.28571Z" fill="#FFF1E5"/>
</svg>
